<svg width="64" height="64" viewBox="0 0 64 64" fill="none" xmlns="http://www.w3.org/2000/svg">
<rect width="64" height="64" fill="#DA4242"/>
<path d="M8.18392 38.1732C9.65531 42.7087 10.9223 46.2152 11.985 48.6929C13.0477 51.1706 13.9877 52.9134 14.8052 53.9213C15.6635 54.8871 16.5422 55.3701 17.4414 55.3701C18.2589 55.3701 18.9332 54.9501 19.4646 54.1102C19.9959 53.2703 20.2616 52.0525 20.2616 50.4567V10.1417L16.4605 8.18898V8H30.5V8.18898L26.6989 10.1417V43.9685C26.6989 46.8661 26.188 49.2178 25.1662 51.0236C24.1444 52.8294 22.8978 54.1102 21.4264 54.8661C19.9959 55.6221 18.5654 56 17.1349 56C14.233 56 11.4741 55.0551 8.85831 53.1654L8 38.2362L8.18392 38.1732Z" fill="#F5F2F2"/>
<path d="M36.8052 31.88H29V33.5H36.8052V50.96L33.0204 52.82V53H47V52.82L43.2151 50.96V10.04L47 8.18V8H33.0204V8.18L36.8052 10.04V31.88Z" fill="#F5F2F2"/>
</svg>
